<svg width="25" height="25" viewBox="0 0 25 25" fill="none" xmlns="http://www.w3.org/2000/svg">
<path d="M12.5201 21.0299C10.1901 21.0299 7.86011 20.6599 5.65011 19.9199C4.81011 19.6299 4.17011 19.0399 3.89011 18.2699C3.60011 17.4999 3.70011 16.6499 4.16011 15.8899L5.31011 13.9799C5.55011 13.5799 5.77011 12.7799 5.77011 12.3099V9.41993C5.77011 5.69993 8.80011 2.66993 12.5201 2.66993C16.2401 2.66993 19.2701 5.69993 19.2701 9.41993V12.3099C19.2701 12.7699 19.4901 13.5799 19.7301 13.9899L20.8701 15.8899C21.3001 16.6099 21.3801 17.4799 21.0901 18.2699C20.8001 19.0599 20.1701 19.6599 19.3801 19.9199C17.1801 20.6599 14.8501 21.0299 12.5201 21.0299ZM12.5201 4.16993C9.63011 4.16993 7.27011 6.51993 7.27011 9.41993V12.3099C7.27011 13.0399 6.97011 14.1199 6.60011 14.7499L5.45011 16.6599C5.23011 17.0299 5.17011 17.4199 5.30011 17.7499C5.42011 18.0899 5.72011 18.3499 6.13011 18.4899C10.3101 19.8899 14.7401 19.8899 18.9201 18.4899C19.2801 18.3699 19.5601 18.0999 19.6901 17.7399C19.8201 17.3799 19.7901 16.9899 19.5901 16.6599L18.4401 14.7499C18.0601 14.0999 17.7701 13.0299 17.7701 12.2999V9.41993C17.7701 6.51993 15.4201 4.16993 12.5201 4.16993Z" fill="#7E92A2"/>
<path d="M14.3801 4.43993C14.3101 4.43993 14.2401 4.42993 14.1701 4.40993C13.8801 4.32993 13.6001 4.26993 13.3301 4.22993C12.4801 4.11993 11.6601 4.17993 10.8901 4.40993C10.6101 4.49993 10.3101 4.40993 10.1201 4.19993C9.93011 3.98993 9.87011 3.68993 9.98011 3.41993C10.3901 2.36993 11.3901 1.67993 12.5301 1.67993C13.6701 1.67993 14.6701 2.35993 15.0801 3.41993C15.1801 3.68993 15.1301 3.98993 14.9401 4.19993C14.7901 4.35993 14.5801 4.43993 14.3801 4.43993Z" fill="#7E92A2"/>
<path d="M12.5201 23.3099C11.5301 23.3099 10.5701 22.9099 9.87011 22.2099C9.17011 21.5099 8.77011 20.5499 8.77011 19.5599H10.2701C10.2701 20.1499 10.5101 20.7299 10.9301 21.1499C11.3501 21.5699 11.9301 21.8099 12.5201 21.8099C13.7601 21.8099 14.7701 20.7999 14.7701 19.5599H16.2701C16.2701 21.6299 14.5901 23.3099 12.5201 23.3099Z" fill="#7E92A2"/>
</svg>
